<?xml version="1.0" encoding="utf-8"?>
<!-- Generator: Adobe Illustrator 25.4.1, SVG Export Plug-In . SVG Version: 6.00 Build 0)  -->
<svg version="1.1" id="Layer_1" xmlns="http://www.w3.org/2000/svg" xmlns:xlink="http://www.w3.org/1999/xlink" x="0px" y="0px"
	 viewBox="0 0 201.4736786 165" style="enable-background:new 0 0 201.4736786 165;" xml:space="preserve">
<style type="text/css">
	.st0{fill:#EF5125;}
	.st1{fill:#FFFFFF;}
</style>
<g>
	<g>
		<path class="st0" d="M180.9129944,165H20.5606823C9.2523069,165,0,155.7476959,0,144.4393158V20.5606823
			C0,9.2523069,9.2523069,0,20.5606823,0h160.3523102c11.3083801,0,20.5606842,9.2523069,20.5606842,20.5606823v123.8786316
			C201.4736786,155.7476959,192.2213745,165,180.9129944,165z"/>
	</g>
	<g>
		<g>
			<path class="st1" d="M103.4989471,149.7206879c-26.8466797,0-48.6879845-21.8388672-48.6879845-48.6826172
				s21.8413048-48.6826172,48.6879845-48.6826172c17.3149414,0,33.4677734,9.3242188,42.1552734,24.3344727l-12.9824219,7.5136719
				c-6.0146484-10.3920898-17.1933594-16.8481445-29.1728516-16.8481445c-18.5756836,0-33.6879883,15.1098633-33.6879883,33.6826172
				s15.1123047,33.6826172,33.6879883,33.6826172c11.9794922,0,23.1577148-6.4555664,29.1728516-16.8476562l12.9824219,7.5141602
				C136.9667206,140.3964691,120.8134003,149.7206879,103.4989471,149.7206879z"/>
			<path class="st1" d="M105.581955,120.3012543c-10.6230469,0-19.265625-8.6416016-19.265625-19.2631836
				s8.6425781-19.2631836,19.265625-19.2631836c6.8413086,0,13.2280273,3.6889648,16.6674805,9.6269531l-6.6103516,3.8291016
				c-2.078125-3.5878906-5.9321289-5.8164062-10.0571289-5.8164062c-6.4106445,0-11.6259766,5.2143555-11.6259766,11.6235352
				s5.215332,11.6235352,11.6259766,11.6235352c4.125,0,7.9785156-2.2285156,10.0571289-5.8164062l6.6103516,3.8300781
				C118.8090057,116.6127777,112.422287,120.3012543,105.581955,120.3012543z"/>
		</g>
		<path class="st1" d="M130.1273651,65.3207855h-15V44.672348c0-7.9365234-6.4555664-14.3930683-14.390625-14.3930683
			s-14.390625,6.4565449-14.390625,14.3930683v20.6484375h-15V44.672348c0-16.2075214,13.1845703-29.3930664,29.390625-29.3930664
			s29.390625,13.1855459,29.390625,29.3930664V65.3207855z"/>
	</g>
</g>
</svg>
