<svg id="Layer_1" data-name="Layer 1" xmlns="http://www.w3.org/2000/svg" viewBox="0 0 461.75334 165"><defs><style>.cls-1{fill:#ee4f23;}.cls-2{fill:#fff;}.cls-3{fill:#344845;}</style></defs><rect class="cls-1" width="201.47368" height="165" rx="20.56068"/><path class="cls-2" d="M103.49908,134.72027a33.68262,33.68262,0,1,1,29.17285-50.5166L145.65435,76.69A48.72166,48.72166,0,0,0,130.127,60.3316V44.67242a29.39014,29.39014,0,1,0-58.78027,0V64.5252a48.66757,48.66757,0,1,0,74.30761,60.86108l-12.98242-7.51367A33.8206,33.8206,0,0,1,103.49908,134.72027ZM86.34674,44.67242a14.39014,14.39014,0,1,1,28.78027,0V53.8001a48.14764,48.14764,0,0,0-28.78027,1.68335Z"/><path class="cls-2" d="M105.58209,89.41363A11.66857,11.66857,0,0,1,115.63971,95.232l6.60937-3.83008a19.26269,19.26269,0,1,0,0,19.27344l-6.60937-3.83008a11.62049,11.62049,0,1,1-10.05762-17.43164Z"/><path class="cls-3" d="M230.01509,58.06312h12.30946v40.614h20.71254v9.13972h-33.022Z"/><path class="cls-3" d="M265.02868,82.23934c0-17.91111,9.50925-25.06164,22.8505-25.06164,13.1205,0,22.62855,7.15053,22.62855,25.06164,0,19.90151-9.80319,26.46176-22.62855,26.46176C274.53793,108.7011,265.02868,101.55177,265.02868,82.23934Zm32.87444,0c0-12.38265-4.865-16.36343-10.17151-16.36343-5.30771,0-10.09832,3.98078-10.09832,16.36343,0,13.784,4.79061,17.76475,10.09832,17.76475C293.03812,100.00409,297.90312,96.02331,297.90312,82.23934Z"/><path class="cls-3" d="M314.93122,82.60767c0-17.9843,8.919-25.43,22.70293-25.43,14.52061,0,20.34421,7.96156,18.72214,18.72335l-11.49843,1.03179c1.25254-7.88718-1.84282-11.05693-7.44447-11.05693-5.38089,0-9.73,3.98078-9.73,16.80614,0,13.562,4.71743,17.0269,10.09833,17.0269,5.08575,0,9.2129-3.16975,8.32868-9.65561l10.76179,1.105c.811,10.09832-6.48587,17.54279-19.75394,17.54279C323.62943,108.7011,314.93122,100.74074,314.93122,82.60767Z"/><path class="cls-3" d="M363.43484,58.06312h12.30947V71.99345c0,1.54888-.222,3.83321-.36833,5.52846h.29394a42.13988,42.13988,0,0,1,3.09656-4.643l12.1619-14.81575h13.26807L387.97939,77.5963l17.10128,30.22058H390.92838L379.43,86.95677l-3.68564,4.49668v16.36343H363.43484Z"/><path class="cls-3" d="M419.75125,82.60767c0-17.9843,8.919-25.43,22.70293-25.43,14.52061,0,20.34422,7.96156,18.72215,18.72335L449.6779,76.93284c1.25254-7.88718-1.84283-11.05693-7.44447-11.05693-5.3809,0-9.73,3.98078-9.73,16.80614,0,13.562,4.71743,17.0269,10.09832,17.0269,5.08575,0,9.21291-3.16975,8.32869-9.65561l10.76178,1.105c.811,10.09832-6.48586,17.54279-19.75393,17.54279C428.44946,108.7011,419.75125,100.74074,419.75125,82.60767Z"/></svg>